<svg xmlns="http://www.w3.org/2000/svg" viewBox="0 0 400 150" width="100%" height="100%">
  <rect width="400" height="150" fill="#F8FAFC" rx="16"/>

  <g transform="translate(70, 75)">
    <g transform="rotate(-130)"><circle cx="0" cy="-35" r="5.5" fill="#E8533A" opacity="0.6"/><path d="M -8.5 -23 A 9 9 0 0 1 8.5 -23" stroke="#E8533A" stroke-width="2.5" fill="none" stroke-linecap="round" opacity="0.6"/></g>
    <g transform="rotate(-95)"><circle cx="0" cy="-35" r="5.5" fill="#E8533A" opacity="0.7"/><path d="M -8.5 -23 A 9 9 0 0 1 8.5 -23" stroke="#E8533A" stroke-width="2.5" fill="none" stroke-linecap="round" opacity="0.7"/></g>
    <g transform="rotate(-60)"><circle cx="0" cy="-35" r="5.5" fill="#E8533A" opacity="0.8"/><path d="M -8.5 -23 A 9 9 0 0 1 8.5 -23" stroke="#E8533A" stroke-width="2.5" fill="none" stroke-linecap="round" opacity="0.8"/></g>
    <g transform="rotate(-25)"><circle cx="0" cy="-35" r="5.5" fill="#E8533A" opacity="1.0"/><path d="M -8.5 -23 A 9 9 0 0 1 8.5 -23" stroke="#E8533A" stroke-width="2.5" fill="none" stroke-linecap="round" opacity="1.0"/></g>
    <g transform="rotate(10)"><circle cx="0" cy="-35" r="5.5" fill="#E8533A" opacity="1.0"/><path d="M -8.5 -23 A 9 9 0 0 1 8.5 -23" stroke="#E8533A" stroke-width="2.5" fill="none" stroke-linecap="round" opacity="1.0"/></g>
    <g transform="rotate(45)"><circle cx="0" cy="-35" r="5.5" fill="#E8533A" opacity="0.8"/><path d="M -8.5 -23 A 9 9 0 0 1 8.5 -23" stroke="#E8533A" stroke-width="2.5" fill="none" stroke-linecap="round" opacity="0.8"/></g>
    <g transform="rotate(80)"><circle cx="0" cy="-35" r="5.5" fill="#E8533A" opacity="0.7"/><path d="M -8.5 -23 A 9 9 0 0 1 8.5 -23" stroke="#E8533A" stroke-width="2.5" fill="none" stroke-linecap="round" opacity="0.7"/></g>
    <g transform="rotate(115)"><circle cx="0" cy="-35" r="5.5" fill="#E8533A" opacity="0.6"/><path d="M -8.5 -23 A 9 9 0 0 1 8.5 -23" stroke="#E8533A" stroke-width="2.5" fill="none" stroke-linecap="round" opacity="0.6"/></g>
  </g>

  <text x="140" y="70" font-family="'Segoe UI', Roboto, Helvetica, Arial, sans-serif" font-size="36" font-weight="900" fill="#0F172A" letter-spacing="-0.5">Crowd</text>
  <text x="140" y="105" font-family="'Segoe UI', Roboto, Helvetica, Arial, sans-serif" font-size="36" font-weight="900" fill="#E8533A" letter-spacing="-0.5">Connect</text>
</svg>